ISO-10303-21;
HEADER;
/* Generated by software containing ST-Developer
 * from STEP Tools, Inc. (www.steptools.com) 
 */
/* OPTION: using custom renumber hook */

FILE_DESCRIPTION(
/* description */ ('STEP AP242 Edition 2',
'CAx-IF Rec.Pracs.---Representation and Presentation of Product Manufa
cturing Information (PMI)---4.0---2014-10-13',
'CAx-IF Rec.Pracs.---3D Tessellated Geometry---0.4---2014-09-14','2;1',
'CAx-IF Rec.Pracs.---User Defined Attributes---1.5---2016-08-15'),
/* implementation_level */ '2;1');

FILE_NAME(
/* name */ 'TOP',
/* time_stamp */ '2026-10-02T12:28:08Z',
/* author */ (''),
/* organization */ (''),
/* preprocessor_version */ 'ST-DEVELOPER v20',
/* originating_system */ 'ONSHAPE BY PTC INC, 1.221',
/* authorisation */ '  ');

FILE_SCHEMA (('AP242_MANAGED_MODEL_BASED_3D_ENGINEERING_MIM_LF { 1 0 10303 442 3 1 4 }'));
ENDSEC;

DATA;
#10=SHAPE_REPRESENTATION_RELATIONSHIP('','',#704,#11);
#11=ADVANCED_BREP_SHAPE_REPRESENTATION('',(#702),#1190);
#12=SPHERICAL_SURFACE('',#767,0.001);
#13=TOROIDAL_SURFACE('',#752,0.0055,0.001);
#14=TOROIDAL_SURFACE('',#753,0.0055,0.001);
#15=TOROIDAL_SURFACE('',#761,0.002,0.001);
#16=ELLIPSE('',#748,0.00141421356237309,0.001);
#17=ELLIPSE('',#750,0.00141421356237309,0.001);
#18=ELLIPSE('',#755,0.00141421356237309,0.001);
#19=ELLIPSE('',#757,0.00141421356237309,0.001);
#20=ELLIPSE('',#770,0.00141421356237309,0.001);
#21=B_SPLINE_CURVE_WITH_KNOTS('',3,(#1063,#1064,#1065,#1066,#1067),
 .UNSPECIFIED.,.F.,.F.,(4,1,4),(0.,0.00102374211662993,0.00204748423325986),
 .UNSPECIFIED.);
#22=LINE('',#992,#86);
#23=LINE('',#995,#87);
#24=LINE('',#999,#88);
#25=LINE('',#1001,#89);
#26=LINE('',#1003,#90);
#27=LINE('',#1007,#91);
#28=LINE('',#1011,#92);
#29=LINE('',#1015,#93);
#30=LINE('',#1019,#94);
#31=LINE('',#1023,#95);
#32=LINE('',#1027,#96);
#33=LINE('',#1029,#97);
#34=LINE('',#1031,#98);
#35=LINE('',#1035,#99);
#36=LINE('',#1037,#100);
#37=LINE('',#1039,#101);
#38=LINE('',#1041,#102);
#39=LINE('',#1044,#103);
#40=LINE('',#1047,#104);
#41=LINE('',#1051,#105);
#42=LINE('',#1053,#106);
#43=LINE('',#1055,#107);
#44=LINE('',#1057,#108);
#45=LINE('',#1059,#109);
#46=LINE('',#1061,#110);
#47=LINE('',#1069,#111);
#48=LINE('',#1071,#112);
#49=LINE('',#1073,#113);
#50=LINE('',#1075,#114);
#51=LINE('',#1077,#115);
#52=LINE('',#1079,#116);
#53=LINE('',#1081,#117);
#54=LINE('',#1083,#118);
#55=LINE('',#1085,#119);
#56=LINE('',#1087,#120);
#57=LINE('',#1091,#121);
#58=LINE('',#1097,#122);
#59=LINE('',#1100,#123);
#60=LINE('',#1102,#124);
#61=LINE('',#1106,#125);
#62=LINE('',#1110,#126);
#63=LINE('',#1113,#127);
#64=LINE('',#1114,#128);
#65=LINE('',#1118,#129);
#66=LINE('',#1120,#130);
#67=LINE('',#1122,#131);
#68=LINE('',#1124,#132);
#69=LINE('',#1126,#133);
#70=LINE('',#1128,#134);
#71=LINE('',#1130,#135);
#72=LINE('',#1133,#136);
#73=LINE('',#1134,#137);
#74=LINE('',#1136,#138);
#75=LINE('',#1137,#139);
#76=LINE('',#1139,#140);
#77=LINE('',#1142,#141);
#78=LINE('',#1143,#142);
#79=LINE('',#1145,#143);
#80=LINE('',#1149,#144);
#81=LINE('',#1150,#145);
#82=LINE('',#1154,#146);
#83=LINE('',#1155,#147);
#84=LINE('',#1157,#148);
#85=LINE('',#1158,#149);
#86=VECTOR('',#787,1.);
#87=VECTOR('',#788,1.);
#88=VECTOR('',#791,1.);
#89=VECTOR('',#792,1.);
#90=VECTOR('',#793,1.);
#91=VECTOR('',#796,1.);
#92=VECTOR('',#799,1.);
#93=VECTOR('',#802,1.);
#94=VECTOR('',#805,1.);
#95=VECTOR('',#808,1.);
#96=VECTOR('',#811,1.);
#97=VECTOR('',#812,1.);
#98=VECTOR('',#813,1.);
#99=VECTOR('',#816,1.);
#100=VECTOR('',#817,1.);
#101=VECTOR('',#818,1.);
#102=VECTOR('',#821,1.);
#103=VECTOR('',#822,1.);
#104=VECTOR('',#825,1.);
#105=VECTOR('',#830,1.);
#106=VECTOR('',#831,1.);
#107=VECTOR('',#832,1.);
#108=VECTOR('',#835,1.);
#109=VECTOR('',#836,1.);
#110=VECTOR('',#839,1.);
#111=VECTOR('',#840,1.);
#112=VECTOR('',#843,1.);
#113=VECTOR('',#844,1.);
#114=VECTOR('',#845,1.);
#115=VECTOR('',#848,1.);
#116=VECTOR('',#849,1.);
#117=VECTOR('',#852,1.);
#118=VECTOR('',#853,1.);
#119=VECTOR('',#856,1.);
#120=VECTOR('',#857,1.);
#121=VECTOR('',#860,1.);
#122=VECTOR('',#867,1.);
#123=VECTOR('',#868,1.);
#124=VECTOR('',#869,1.);
#125=VECTOR('',#872,1.);
#126=VECTOR('',#877,1.);
#127=VECTOR('',#878,1.);
#128=VECTOR('',#879,1.);
#129=VECTOR('',#884,1.);
#130=VECTOR('',#885,1.);
#131=VECTOR('',#886,1.);
#132=VECTOR('',#889,1.);
#133=VECTOR('',#890,1.);
#134=VECTOR('',#891,1.);
#135=VECTOR('',#894,1.);
#136=VECTOR('',#895,1.);
#137=VECTOR('',#896,1.);
#138=VECTOR('',#899,1.);
#139=VECTOR('',#900,1.);
#140=VECTOR('',#903,1.);
#141=VECTOR('',#904,1.);
#142=VECTOR('',#905,1.);
#143=VECTOR('',#906,1.);
#144=VECTOR('',#911,1.);
#145=VECTOR('',#912,1.);
#146=VECTOR('',#919,1.);
#147=VECTOR('',#920,1.);
#148=VECTOR('',#923,1.);
#149=VECTOR('',#924,1.);
#150=PLANE('',#709);
#151=PLANE('',#718);
#152=PLANE('',#721);
#153=PLANE('',#722);
#154=PLANE('',#723);
#155=PLANE('',#724);
#156=PLANE('',#725);
#157=PLANE('',#726);
#158=PLANE('',#727);
#159=PLANE('',#730);
#160=PLANE('',#734);
#161=PLANE('',#735);
#162=PLANE('',#737);
#163=PLANE('',#738);
#164=PLANE('',#739);
#165=PLANE('',#740);
#166=PLANE('',#745);
#167=PLANE('',#746);
#168=ORIENTED_EDGE('',*,*,#362,.T.);
#169=ORIENTED_EDGE('',*,*,#363,.T.);
#170=ORIENTED_EDGE('',*,*,#364,.T.);
#171=ORIENTED_EDGE('',*,*,#365,.T.);
#172=ORIENTED_EDGE('',*,*,#366,.T.);
#173=ORIENTED_EDGE('',*,*,#367,.T.);
#174=ORIENTED_EDGE('',*,*,#368,.F.);
#175=ORIENTED_EDGE('',*,*,#369,.T.);
#176=ORIENTED_EDGE('',*,*,#370,.T.);
#177=ORIENTED_EDGE('',*,*,#371,.T.);
#178=ORIENTED_EDGE('',*,*,#372,.T.);
#179=ORIENTED_EDGE('',*,*,#373,.F.);
#180=ORIENTED_EDGE('',*,*,#374,.T.);
#181=ORIENTED_EDGE('',*,*,#375,.T.);
#182=ORIENTED_EDGE('',*,*,#376,.T.);
#183=ORIENTED_EDGE('',*,*,#377,.T.);
#184=ORIENTED_EDGE('',*,*,#378,.T.);
#185=ORIENTED_EDGE('',*,*,#379,.F.);
#186=ORIENTED_EDGE('',*,*,#380,.T.);
#187=ORIENTED_EDGE('',*,*,#381,.F.);
#188=ORIENTED_EDGE('',*,*,#382,.T.);
#189=ORIENTED_EDGE('',*,*,#383,.F.);
#190=ORIENTED_EDGE('',*,*,#384,.T.);
#191=ORIENTED_EDGE('',*,*,#385,.F.);
#192=ORIENTED_EDGE('',*,*,#386,.T.);
#193=ORIENTED_EDGE('',*,*,#387,.T.);
#194=ORIENTED_EDGE('',*,*,#388,.T.);
#195=ORIENTED_EDGE('',*,*,#389,.T.);
#196=ORIENTED_EDGE('',*,*,#365,.F.);
#197=ORIENTED_EDGE('',*,*,#390,.T.);
#198=ORIENTED_EDGE('',*,*,#391,.F.);
#199=ORIENTED_EDGE('',*,*,#392,.T.);
#200=ORIENTED_EDGE('',*,*,#367,.F.);
#201=ORIENTED_EDGE('',*,*,#393,.T.);
#202=ORIENTED_EDGE('',*,*,#394,.T.);
#203=ORIENTED_EDGE('',*,*,#395,.T.);
#204=ORIENTED_EDGE('',*,*,#395,.F.);
#205=ORIENTED_EDGE('',*,*,#396,.T.);
#206=ORIENTED_EDGE('',*,*,#397,.T.);
#207=ORIENTED_EDGE('',*,*,#368,.T.);
#208=ORIENTED_EDGE('',*,*,#398,.T.);
#209=ORIENTED_EDGE('',*,*,#399,.T.);
#210=ORIENTED_EDGE('',*,*,#400,.T.);
#211=ORIENTED_EDGE('',*,*,#369,.F.);
#212=ORIENTED_EDGE('',*,*,#397,.F.);
#213=ORIENTED_EDGE('',*,*,#381,.T.);
#214=ORIENTED_EDGE('',*,*,#401,.T.);
#215=ORIENTED_EDGE('',*,*,#402,.F.);
#216=ORIENTED_EDGE('',*,*,#403,.T.);
#217=ORIENTED_EDGE('',*,*,#403,.F.);
#218=ORIENTED_EDGE('',*,*,#404,.T.);
#219=ORIENTED_EDGE('',*,*,#405,.T.);
#220=ORIENTED_EDGE('',*,*,#382,.F.);
#221=ORIENTED_EDGE('',*,*,#406,.F.);
#222=ORIENTED_EDGE('',*,*,#407,.T.);
#223=ORIENTED_EDGE('',*,*,#383,.T.);
#224=ORIENTED_EDGE('',*,*,#405,.F.);
#225=ORIENTED_EDGE('',*,*,#385,.T.);
#226=ORIENTED_EDGE('',*,*,#408,.T.);
#227=ORIENTED_EDGE('',*,*,#409,.F.);
#228=ORIENTED_EDGE('',*,*,#410,.T.);
#229=ORIENTED_EDGE('',*,*,#411,.T.);
#230=ORIENTED_EDGE('',*,*,#412,.T.);
#231=ORIENTED_EDGE('',*,*,#413,.T.);
#232=ORIENTED_EDGE('',*,*,#414,.T.);
#233=ORIENTED_EDGE('',*,*,#415,.T.);
#234=ORIENTED_EDGE('',*,*,#416,.F.);
#235=ORIENTED_EDGE('',*,*,#417,.T.);
#236=ORIENTED_EDGE('',*,*,#418,.F.);
#237=ORIENTED_EDGE('',*,*,#419,.T.);
#238=ORIENTED_EDGE('',*,*,#420,.T.);
#239=ORIENTED_EDGE('',*,*,#421,.T.);
#240=ORIENTED_EDGE('',*,*,#377,.F.);
#241=ORIENTED_EDGE('',*,*,#422,.T.);
#242=ORIENTED_EDGE('',*,*,#423,.T.);
#243=ORIENTED_EDGE('',*,*,#375,.F.);
#244=ORIENTED_EDGE('',*,*,#424,.T.);
#245=ORIENTED_EDGE('',*,*,#425,.F.);
#246=ORIENTED_EDGE('',*,*,#426,.T.);
#247=ORIENTED_EDGE('',*,*,#373,.T.);
#248=ORIENTED_EDGE('',*,*,#427,.T.);
#249=ORIENTED_EDGE('',*,*,#428,.T.);
#250=ORIENTED_EDGE('',*,*,#429,.T.);
#251=ORIENTED_EDGE('',*,*,#430,.T.);
#252=ORIENTED_EDGE('',*,*,#431,.T.);
#253=ORIENTED_EDGE('',*,*,#371,.F.);
#254=ORIENTED_EDGE('',*,*,#432,.T.);
#255=ORIENTED_EDGE('',*,*,#391,.T.);
#256=ORIENTED_EDGE('',*,*,#433,.T.);
#257=ORIENTED_EDGE('',*,*,#414,.F.);
#258=ORIENTED_EDGE('',*,*,#434,.T.);
#259=ORIENTED_EDGE('',*,*,#435,.T.);
#260=ORIENTED_EDGE('',*,*,#436,.T.);
#261=ORIENTED_EDGE('',*,*,#425,.T.);
#262=ORIENTED_EDGE('',*,*,#437,.T.);
#263=ORIENTED_EDGE('',*,*,#438,.T.);
#264=ORIENTED_EDGE('',*,*,#439,.T.);
#265=ORIENTED_EDGE('',*,*,#398,.F.);
#266=ORIENTED_EDGE('',*,*,#396,.F.);
#267=ORIENTED_EDGE('',*,*,#394,.F.);
#268=ORIENTED_EDGE('',*,*,#440,.T.);
#269=ORIENTED_EDGE('',*,*,#388,.F.);
#270=ORIENTED_EDGE('',*,*,#441,.T.);
#271=ORIENTED_EDGE('',*,*,#418,.T.);
#272=ORIENTED_EDGE('',*,*,#442,.T.);
#273=ORIENTED_EDGE('',*,*,#409,.T.);
#274=ORIENTED_EDGE('',*,*,#443,.T.);
#275=ORIENTED_EDGE('',*,*,#406,.T.);
#276=ORIENTED_EDGE('',*,*,#404,.F.);
#277=ORIENTED_EDGE('',*,*,#402,.T.);
#278=ORIENTED_EDGE('',*,*,#444,.T.);
#279=ORIENTED_EDGE('',*,*,#416,.T.);
#280=ORIENTED_EDGE('',*,*,#445,.T.);
#281=ORIENTED_EDGE('',*,*,#411,.F.);
#282=ORIENTED_EDGE('',*,*,#446,.T.);
#283=ORIENTED_EDGE('',*,*,#379,.T.);
#284=ORIENTED_EDGE('',*,*,#447,.T.);
#285=ORIENTED_EDGE('',*,*,#435,.F.);
#286=ORIENTED_EDGE('',*,*,#448,.T.);
#287=ORIENTED_EDGE('',*,*,#412,.F.);
#288=ORIENTED_EDGE('',*,*,#445,.F.);
#289=ORIENTED_EDGE('',*,*,#449,.F.);
#290=ORIENTED_EDGE('',*,*,#386,.F.);
#291=ORIENTED_EDGE('',*,*,#390,.F.);
#292=ORIENTED_EDGE('',*,*,#364,.F.);
#293=ORIENTED_EDGE('',*,*,#450,.F.);
#294=ORIENTED_EDGE('',*,*,#433,.F.);
#295=ORIENTED_EDGE('',*,*,#449,.T.);
#296=ORIENTED_EDGE('',*,*,#415,.F.);
#297=ORIENTED_EDGE('',*,*,#450,.T.);
#298=ORIENTED_EDGE('',*,*,#387,.F.);
#299=ORIENTED_EDGE('',*,*,#413,.F.);
#300=ORIENTED_EDGE('',*,*,#362,.F.);
#301=ORIENTED_EDGE('',*,*,#423,.F.);
#302=ORIENTED_EDGE('',*,*,#363,.F.);
#303=ORIENTED_EDGE('',*,*,#378,.F.);
#304=ORIENTED_EDGE('',*,*,#421,.F.);
#305=ORIENTED_EDGE('',*,*,#451,.F.);
#306=ORIENTED_EDGE('',*,*,#447,.F.);
#307=ORIENTED_EDGE('',*,*,#376,.F.);
#308=ORIENTED_EDGE('',*,*,#426,.F.);
#309=ORIENTED_EDGE('',*,*,#452,.F.);
#310=ORIENTED_EDGE('',*,*,#422,.F.);
#311=ORIENTED_EDGE('',*,*,#451,.T.);
#312=ORIENTED_EDGE('',*,*,#420,.F.);
#313=ORIENTED_EDGE('',*,*,#452,.T.);
#314=ORIENTED_EDGE('',*,*,#436,.F.);
#315=ORIENTED_EDGE('',*,*,#370,.F.);
#316=ORIENTED_EDGE('',*,*,#400,.F.);
#317=ORIENTED_EDGE('',*,*,#453,.F.);
#318=ORIENTED_EDGE('',*,*,#432,.F.);
#319=ORIENTED_EDGE('',*,*,#399,.F.);
#320=ORIENTED_EDGE('',*,*,#439,.F.);
#321=ORIENTED_EDGE('',*,*,#454,.F.);
#322=ORIENTED_EDGE('',*,*,#453,.T.);
#323=ORIENTED_EDGE('',*,*,#454,.T.);
#324=ORIENTED_EDGE('',*,*,#438,.F.);
#325=ORIENTED_EDGE('',*,*,#455,.F.);
#326=ORIENTED_EDGE('',*,*,#430,.F.);
#327=ORIENTED_EDGE('',*,*,#372,.F.);
#328=ORIENTED_EDGE('',*,*,#431,.F.);
#329=ORIENTED_EDGE('',*,*,#456,.F.);
#330=ORIENTED_EDGE('',*,*,#427,.F.);
#331=ORIENTED_EDGE('',*,*,#456,.T.);
#332=ORIENTED_EDGE('',*,*,#455,.T.);
#333=ORIENTED_EDGE('',*,*,#457,.F.);
#334=ORIENTED_EDGE('',*,*,#374,.F.);
#335=ORIENTED_EDGE('',*,*,#429,.F.);
#336=ORIENTED_EDGE('',*,*,#458,.F.);
#337=ORIENTED_EDGE('',*,*,#424,.F.);
#338=ORIENTED_EDGE('',*,*,#457,.T.);
#339=ORIENTED_EDGE('',*,*,#437,.F.);
#340=ORIENTED_EDGE('',*,*,#458,.T.);
#341=ORIENTED_EDGE('',*,*,#428,.F.);
#342=ORIENTED_EDGE('',*,*,#417,.F.);
#343=ORIENTED_EDGE('',*,*,#446,.F.);
#344=ORIENTED_EDGE('',*,*,#410,.F.);
#345=ORIENTED_EDGE('',*,*,#442,.F.);
#346=ORIENTED_EDGE('',*,*,#419,.F.);
#347=ORIENTED_EDGE('',*,*,#441,.F.);
#348=ORIENTED_EDGE('',*,*,#392,.F.);
#349=ORIENTED_EDGE('',*,*,#434,.F.);
#350=ORIENTED_EDGE('',*,*,#444,.F.);
#351=ORIENTED_EDGE('',*,*,#401,.F.);
#352=ORIENTED_EDGE('',*,*,#380,.F.);
#353=ORIENTED_EDGE('',*,*,#448,.F.);
#354=ORIENTED_EDGE('',*,*,#440,.F.);
#355=ORIENTED_EDGE('',*,*,#393,.F.);
#356=ORIENTED_EDGE('',*,*,#366,.F.);
#357=ORIENTED_EDGE('',*,*,#389,.F.);
#358=ORIENTED_EDGE('',*,*,#443,.F.);
#359=ORIENTED_EDGE('',*,*,#408,.F.);
#360=ORIENTED_EDGE('',*,*,#384,.F.);
#361=ORIENTED_EDGE('',*,*,#407,.F.);
#362=EDGE_CURVE('',#459,#459,#522,.T.);
#363=EDGE_CURVE('',#460,#460,#523,.T.);
#364=EDGE_CURVE('',#461,#462,#22,.T.);
#365=EDGE_CURVE('',#462,#463,#23,.T.);
#366=EDGE_CURVE('',#463,#464,#524,.T.);
#367=EDGE_CURVE('',#464,#465,#24,.T.);
#368=EDGE_CURVE('',#466,#465,#25,.T.);
#369=EDGE_CURVE('',#466,#467,#26,.T.);
#370=EDGE_CURVE('',#467,#468,#525,.F.);
#371=EDGE_CURVE('',#468,#469,#27,.T.);
#372=EDGE_CURVE('',#469,#470,#526,.T.);
#373=EDGE_CURVE('',#471,#470,#28,.T.);
#374=EDGE_CURVE('',#471,#472,#527,.T.);
#375=EDGE_CURVE('',#472,#473,#29,.T.);
#376=EDGE_CURVE('',#473,#474,#528,.T.);
#377=EDGE_CURVE('',#474,#475,#30,.T.);
#378=EDGE_CURVE('',#475,#476,#529,.T.);
#379=EDGE_CURVE('',#477,#476,#31,.T.);
#380=EDGE_CURVE('',#477,#478,#530,.F.);
#381=EDGE_CURVE('',#479,#478,#32,.T.);
#382=EDGE_CURVE('',#479,#480,#33,.T.);
#383=EDGE_CURVE('',#481,#480,#34,.T.);
#384=EDGE_CURVE('',#481,#482,#531,.T.);
#385=EDGE_CURVE('',#483,#482,#35,.T.);
#386=EDGE_CURVE('',#483,#484,#36,.F.);
#387=EDGE_CURVE('',#484,#461,#37,.T.);
#388=EDGE_CURVE('',#485,#486,#38,.T.);
#389=EDGE_CURVE('',#486,#463,#39,.T.);
#390=EDGE_CURVE('',#462,#487,#532,.F.);
#391=EDGE_CURVE('',#488,#487,#40,.T.);
#392=EDGE_CURVE('',#488,#485,#533,.F.);
#393=EDGE_CURVE('',#464,#489,#41,.F.);
#394=EDGE_CURVE('',#489,#490,#42,.T.);
#395=EDGE_CURVE('',#490,#465,#43,.T.);
#396=EDGE_CURVE('',#490,#491,#44,.T.);
#397=EDGE_CURVE('',#491,#466,#45,.T.);
#398=EDGE_CURVE('',#491,#492,#46,.T.);
#399=EDGE_CURVE('',#492,#493,#21,.T.);
#400=EDGE_CURVE('',#493,#467,#47,.T.);
#401=EDGE_CURVE('',#478,#494,#48,.F.);
#402=EDGE_CURVE('',#495,#494,#49,.T.);
#403=EDGE_CURVE('',#495,#479,#50,.T.);
#404=EDGE_CURVE('',#495,#496,#51,.T.);
#405=EDGE_CURVE('',#496,#480,#52,.T.);
#406=EDGE_CURVE('',#497,#496,#53,.T.);
#407=EDGE_CURVE('',#497,#481,#54,.T.);
#408=EDGE_CURVE('',#482,#498,#55,.F.);
#409=EDGE_CURVE('',#499,#498,#56,.T.);
#410=EDGE_CURVE('',#499,#500,#534,.T.);
#411=EDGE_CURVE('',#500,#501,#57,.T.);
#412=EDGE_CURVE('',#501,#483,#535,.T.);
#413=EDGE_CURVE('',#502,#502,#536,.F.);
#414=EDGE_CURVE('',#503,#504,#58,.T.);
#415=EDGE_CURVE('',#504,#505,#59,.F.);
#416=EDGE_CURVE('',#506,#505,#60,.T.);
#417=EDGE_CURVE('',#506,#507,#537,.F.);
#418=EDGE_CURVE('',#508,#507,#61,.T.);
#419=EDGE_CURVE('',#508,#503,#538,.F.);
#420=EDGE_CURVE('',#509,#510,#62,.F.);
#421=EDGE_CURVE('',#510,#475,#63,.T.);
#422=EDGE_CURVE('',#474,#509,#64,.F.);
#423=EDGE_CURVE('',#511,#511,#539,.F.);
#424=EDGE_CURVE('',#472,#512,#65,.F.);
#425=EDGE_CURVE('',#513,#512,#66,.T.);
#426=EDGE_CURVE('',#513,#473,#67,.T.);
#427=EDGE_CURVE('',#470,#514,#68,.F.);
#428=EDGE_CURVE('',#514,#515,#69,.T.);
#429=EDGE_CURVE('',#515,#471,#70,.T.);
#430=EDGE_CURVE('',#516,#517,#71,.T.);
#431=EDGE_CURVE('',#517,#469,#72,.T.);
#432=EDGE_CURVE('',#468,#516,#73,.F.);
#433=EDGE_CURVE('',#487,#504,#74,.F.);
#434=EDGE_CURVE('',#503,#488,#75,.T.);
#435=EDGE_CURVE('',#518,#519,#76,.T.);
#436=EDGE_CURVE('',#519,#513,#77,.T.);
#437=EDGE_CURVE('',#512,#520,#78,.F.);
#438=EDGE_CURVE('',#520,#521,#79,.F.);
#439=EDGE_CURVE('',#521,#492,#540,.F.);
#440=EDGE_CURVE('',#489,#486,#541,.T.);
#441=EDGE_CURVE('',#485,#508,#80,.F.);
#442=EDGE_CURVE('',#507,#499,#81,.T.);
#443=EDGE_CURVE('',#498,#497,#542,.T.);
#444=EDGE_CURVE('',#494,#518,#543,.F.);
#445=EDGE_CURVE('',#505,#501,#82,.T.);
#446=EDGE_CURVE('',#500,#506,#83,.F.);
#447=EDGE_CURVE('',#476,#519,#84,.F.);
#448=EDGE_CURVE('',#518,#477,#85,.T.);
#449=EDGE_CURVE('',#484,#505,#16,.T.);
#450=EDGE_CURVE('',#504,#461,#17,.F.);
#451=EDGE_CURVE('',#519,#510,#18,.T.);
#452=EDGE_CURVE('',#509,#513,#19,.F.);
#453=EDGE_CURVE('',#516,#493,#544,.F.);
#454=EDGE_CURVE('',#516,#521,#545,.T.);
#455=EDGE_CURVE('',#517,#520,#546,.T.);
#456=EDGE_CURVE('',#514,#517,#547,.T.);
#457=EDGE_CURVE('',#514,#520,#548,.F.);
#458=EDGE_CURVE('',#512,#515,#20,.T.);
#459=VERTEX_POINT('',#988);
#460=VERTEX_POINT('',#990);
#461=VERTEX_POINT('',#993);
#462=VERTEX_POINT('',#994);
#463=VERTEX_POINT('',#996);
#464=VERTEX_POINT('',#998);
#465=VERTEX_POINT('',#1000);
#466=VERTEX_POINT('',#1002);
#467=VERTEX_POINT('',#1004);
#468=VERTEX_POINT('',#1006);
#469=VERTEX_POINT('',#1008);
#470=VERTEX_POINT('',#1010);
#471=VERTEX_POINT('',#1012);
#472=VERTEX_POINT('',#1014);
#473=VERTEX_POINT('',#1016);
#474=VERTEX_POINT('',#1018);
#475=VERTEX_POINT('',#1020);
#476=VERTEX_POINT('',#1022);
#477=VERTEX_POINT('',#1024);
#478=VERTEX_POINT('',#1026);
#479=VERTEX_POINT('',#1028);
#480=VERTEX_POINT('',#1030);
#481=VERTEX_POINT('',#1032);
#482=VERTEX_POINT('',#1034);
#483=VERTEX_POINT('',#1036);
#484=VERTEX_POINT('',#1038);
#485=VERTEX_POINT('',#1042);
#486=VERTEX_POINT('',#1043);
#487=VERTEX_POINT('',#1046);
#488=VERTEX_POINT('',#1048);
#489=VERTEX_POINT('',#1052);
#490=VERTEX_POINT('',#1054);
#491=VERTEX_POINT('',#1058);
#492=VERTEX_POINT('',#1062);
#493=VERTEX_POINT('',#1068);
#494=VERTEX_POINT('',#1072);
#495=VERTEX_POINT('',#1074);
#496=VERTEX_POINT('',#1078);
#497=VERTEX_POINT('',#1082);
#498=VERTEX_POINT('',#1086);
#499=VERTEX_POINT('',#1088);
#500=VERTEX_POINT('',#1090);
#501=VERTEX_POINT('',#1092);
#502=VERTEX_POINT('',#1096);
#503=VERTEX_POINT('',#1098);
#504=VERTEX_POINT('',#1099);
#505=VERTEX_POINT('',#1101);
#506=VERTEX_POINT('',#1103);
#507=VERTEX_POINT('',#1105);
#508=VERTEX_POINT('',#1107);
#509=VERTEX_POINT('',#1111);
#510=VERTEX_POINT('',#1112);
#511=VERTEX_POINT('',#1117);
#512=VERTEX_POINT('',#1119);
#513=VERTEX_POINT('',#1121);
#514=VERTEX_POINT('',#1125);
#515=VERTEX_POINT('',#1127);
#516=VERTEX_POINT('',#1131);
#517=VERTEX_POINT('',#1132);
#518=VERTEX_POINT('',#1140);
#519=VERTEX_POINT('',#1141);
#520=VERTEX_POINT('',#1144);
#521=VERTEX_POINT('',#1146);
#522=CIRCLE('',#707,0.0045);
#523=CIRCLE('',#708,0.0045);
#524=CIRCLE('',#710,0.001);
#525=CIRCLE('',#711,0.001);
#526=CIRCLE('',#712,0.001);
#527=CIRCLE('',#713,0.001);
#528=CIRCLE('',#714,0.001);
#529=CIRCLE('',#715,0.001);
#530=CIRCLE('',#716,0.001);
#531=CIRCLE('',#717,0.001);
#532=CIRCLE('',#719,0.001);
#533=CIRCLE('',#720,0.001);
#534=CIRCLE('',#728,0.001);
#535=CIRCLE('',#729,0.001);
#536=CIRCLE('',#731,0.0055);
#537=CIRCLE('',#732,0.001);
#538=CIRCLE('',#733,0.001);
#539=CIRCLE('',#736,0.0055);
#540=CIRCLE('',#741,0.002);
#541=CIRCLE('',#742,0.001);
#542=CIRCLE('',#743,0.001);
#543=CIRCLE('',#744,0.001);
#544=CIRCLE('',#760,0.001);
#545=CIRCLE('',#762,0.001);
#546=CIRCLE('',#764,0.001);
#547=CIRCLE('',#766,0.001);
#548=CIRCLE('',#768,0.001);
#549=EDGE_LOOP('',(#168));
#550=EDGE_LOOP('',(#169));
#551=EDGE_LOOP('',(#170,#171,#172,#173,#174,#175,#176,#177,#178,#179,#180,
#181,#182,#183,#184,#185,#186,#187,#188,#189,#190,#191,#192,#193));
#552=EDGE_LOOP('',(#194,#195,#196,#197,#198,#199));
#553=EDGE_LOOP('',(#200,#201,#202,#203));
#554=EDGE_LOOP('',(#204,#205,#206,#207));
#555=EDGE_LOOP('',(#208,#209,#210,#211,#212));
#556=EDGE_LOOP('',(#213,#214,#215,#216));
#557=EDGE_LOOP('',(#217,#218,#219,#220));
#558=EDGE_LOOP('',(#221,#222,#223,#224));
#559=EDGE_LOOP('',(#225,#226,#227,#228,#229,#230));
#560=EDGE_LOOP('',(#231));
#561=EDGE_LOOP('',(#232,#233,#234,#235,#236,#237));
#562=EDGE_LOOP('',(#238,#239,#240,#241));
#563=EDGE_LOOP('',(#242));
#564=EDGE_LOOP('',(#243,#244,#245,#246));
#565=EDGE_LOOP('',(#247,#248,#249,#250));
#566=EDGE_LOOP('',(#251,#252,#253,#254));
#567=EDGE_LOOP('',(#255,#256,#257,#258));
#568=EDGE_LOOP('',(#259,#260,#261,#262,#263,#264,#265,#266,#267,#268,#269,
#270,#271,#272,#273,#274,#275,#276,#277,#278));
#569=EDGE_LOOP('',(#279,#280,#281,#282));
#570=EDGE_LOOP('',(#283,#284,#285,#286));
#571=EDGE_LOOP('',(#287,#288,#289,#290));
#572=EDGE_LOOP('',(#291,#292,#293,#294));
#573=EDGE_LOOP('',(#295,#296,#297,#298));
#574=EDGE_LOOP('',(#299));
#575=EDGE_LOOP('',(#300));
#576=EDGE_LOOP('',(#301));
#577=EDGE_LOOP('',(#302));
#578=EDGE_LOOP('',(#303,#304,#305,#306));
#579=EDGE_LOOP('',(#307,#308,#309,#310));
#580=EDGE_LOOP('',(#311,#312,#313,#314));
#581=EDGE_LOOP('',(#315,#316,#317,#318));
#582=EDGE_LOOP('',(#319,#320,#321,#322));
#583=EDGE_LOOP('',(#323,#324,#325,#326));
#584=EDGE_LOOP('',(#327,#328,#329,#330));
#585=EDGE_LOOP('',(#331,#332,#333));
#586=EDGE_LOOP('',(#334,#335,#336,#337));
#587=EDGE_LOOP('',(#338,#339,#340,#341));
#588=EDGE_LOOP('',(#342,#343,#344,#345));
#589=EDGE_LOOP('',(#346,#347,#348,#349));
#590=EDGE_LOOP('',(#350,#351,#352,#353));
#591=EDGE_LOOP('',(#354,#355,#356,#357));
#592=EDGE_LOOP('',(#358,#359,#360,#361));
#593=FACE_BOUND('',#549,.T.);
#594=FACE_BOUND('',#550,.T.);
#595=FACE_BOUND('',#551,.T.);
#596=FACE_BOUND('',#552,.T.);
#597=FACE_BOUND('',#553,.T.);
#598=FACE_BOUND('',#554,.T.);
#599=FACE_BOUND('',#555,.T.);
#600=FACE_BOUND('',#556,.T.);
#601=FACE_BOUND('',#557,.T.);
#602=FACE_BOUND('',#558,.T.);
#603=FACE_BOUND('',#559,.T.);
#604=FACE_BOUND('',#560,.T.);
#605=FACE_BOUND('',#561,.T.);
#606=FACE_BOUND('',#562,.T.);
#607=FACE_BOUND('',#563,.T.);
#608=FACE_BOUND('',#564,.T.);
#609=FACE_BOUND('',#565,.T.);
#610=FACE_BOUND('',#566,.T.);
#611=FACE_BOUND('',#567,.T.);
#612=FACE_BOUND('',#568,.T.);
#613=FACE_BOUND('',#569,.T.);
#614=FACE_BOUND('',#570,.T.);
#615=FACE_BOUND('',#571,.T.);
#616=FACE_BOUND('',#572,.T.);
#617=FACE_BOUND('',#573,.T.);
#618=FACE_BOUND('',#574,.T.);
#619=FACE_BOUND('',#575,.T.);
#620=FACE_BOUND('',#576,.T.);
#621=FACE_BOUND('',#577,.T.);
#622=FACE_BOUND('',#578,.T.);
#623=FACE_BOUND('',#579,.T.);
#624=FACE_BOUND('',#580,.T.);
#625=FACE_BOUND('',#581,.T.);
#626=FACE_BOUND('',#582,.T.);
#627=FACE_BOUND('',#583,.T.);
#628=FACE_BOUND('',#584,.T.);
#629=FACE_BOUND('',#585,.T.);
#630=FACE_BOUND('',#586,.T.);
#631=FACE_BOUND('',#587,.T.);
#632=FACE_BOUND('',#588,.T.);
#633=FACE_BOUND('',#589,.T.);
#634=FACE_BOUND('',#590,.T.);
#635=FACE_BOUND('',#591,.T.);
#636=FACE_BOUND('',#592,.T.);
#637=CYLINDRICAL_SURFACE('',#706,0.0045);
#638=CYLINDRICAL_SURFACE('',#747,0.001);
#639=CYLINDRICAL_SURFACE('',#749,0.001);
#640=CYLINDRICAL_SURFACE('',#751,0.001);
#641=CYLINDRICAL_SURFACE('',#754,0.001);
#642=CYLINDRICAL_SURFACE('',#756,0.001);
#643=CYLINDRICAL_SURFACE('',#758,0.001);
#644=CYLINDRICAL_SURFACE('',#759,0.001);
#645=CYLINDRICAL_SURFACE('',#763,0.001);
#646=CYLINDRICAL_SURFACE('',#765,0.001);
#647=CYLINDRICAL_SURFACE('',#769,0.001);
#648=CYLINDRICAL_SURFACE('',#771,0.001);
#649=CYLINDRICAL_SURFACE('',#772,0.001);
#650=CYLINDRICAL_SURFACE('',#773,0.001);
#651=CYLINDRICAL_SURFACE('',#774,0.001);
#652=CYLINDRICAL_SURFACE('',#775,0.001);
#653=CYLINDRICAL_SURFACE('',#776,0.001);
#654=ADVANCED_FACE('',(#593,#594),#637,.F.);
#655=ADVANCED_FACE('',(#595),#150,.T.);
#656=ADVANCED_FACE('',(#596),#151,.T.);
#657=ADVANCED_FACE('',(#597),#152,.T.);
#658=ADVANCED_FACE('',(#598),#153,.F.);
#659=ADVANCED_FACE('',(#599),#154,.T.);
#660=ADVANCED_FACE('',(#600),#155,.F.);
#661=ADVANCED_FACE('',(#601),#156,.T.);
#662=ADVANCED_FACE('',(#602),#157,.F.);
#663=ADVANCED_FACE('',(#603),#158,.F.);
#664=ADVANCED_FACE('',(#604,#605),#159,.T.);
#665=ADVANCED_FACE('',(#606),#160,.T.);
#666=ADVANCED_FACE('',(#607,#608),#161,.T.);
#667=ADVANCED_FACE('',(#609),#162,.F.);
#668=ADVANCED_FACE('',(#610),#163,.T.);
#669=ADVANCED_FACE('',(#611),#164,.T.);
#670=ADVANCED_FACE('',(#612),#165,.T.);
#671=ADVANCED_FACE('',(#613),#166,.F.);
#672=ADVANCED_FACE('',(#614),#167,.F.);
#673=ADVANCED_FACE('',(#615),#638,.T.);
#674=ADVANCED_FACE('',(#616),#639,.T.);
#675=ADVANCED_FACE('',(#617),#640,.T.);
#676=ADVANCED_FACE('',(#618,#619),#13,.T.);
#677=ADVANCED_FACE('',(#620,#621),#14,.T.);
#678=ADVANCED_FACE('',(#622),#641,.T.);
#679=ADVANCED_FACE('',(#623),#642,.T.);
#680=ADVANCED_FACE('',(#624),#643,.T.);
#681=ADVANCED_FACE('',(#625),#644,.F.);
#682=ADVANCED_FACE('',(#626),#15,.T.);
#683=ADVANCED_FACE('',(#627),#645,.T.);
#684=ADVANCED_FACE('',(#628),#646,.T.);
#685=ADVANCED_FACE('',(#629),#12,.T.);
#686=ADVANCED_FACE('',(#630),#647,.T.);
#687=ADVANCED_FACE('',(#631),#648,.T.);
#688=ADVANCED_FACE('',(#632),#649,.T.);
#689=ADVANCED_FACE('',(#633),#650,.T.);
#690=ADVANCED_FACE('',(#634),#651,.F.);
#691=ADVANCED_FACE('',(#635),#652,.T.);
#692=ADVANCED_FACE('',(#636),#653,.T.);
#693=CLOSED_SHELL('',(#654,#655,#656,#657,#658,#659,#660,#661,#662,#663,
#664,#665,#666,#667,#668,#669,#670,#671,#672,#673,#674,#675,#676,#677,#678,
#679,#680,#681,#682,#683,#684,#685,#686,#687,#688,#689,#690,#691,#692));
#694=STYLED_ITEM('',(#695),#702);
#695=PRESENTATION_STYLE_ASSIGNMENT((#696));
#696=SURFACE_STYLE_USAGE(.BOTH.,#697);
#697=SURFACE_SIDE_STYLE('',(#698));
#698=SURFACE_STYLE_FILL_AREA(#699);
#699=FILL_AREA_STYLE('',(#700));
#700=FILL_AREA_STYLE_COLOUR('',#701);
#701=COLOUR_RGB('',0.654901960784314,0.823529411764706,0.576470588235294);
#702=MANIFOLD_SOLID_BREP('Part 1',#693);
#703=SHAPE_DEFINITION_REPRESENTATION(#1195,#704);
#704=SHAPE_REPRESENTATION('Part 1',(#705),#1190);
#705=AXIS2_PLACEMENT_3D('',#985,#777,#778);
#706=AXIS2_PLACEMENT_3D('',#986,#779,#780);
#707=AXIS2_PLACEMENT_3D('',#987,#781,#782);
#708=AXIS2_PLACEMENT_3D('',#989,#783,#784);
#709=AXIS2_PLACEMENT_3D('',#991,#785,#786);
#710=AXIS2_PLACEMENT_3D('',#997,#789,#790);
#711=AXIS2_PLACEMENT_3D('',#1005,#794,#795);
#712=AXIS2_PLACEMENT_3D('',#1009,#797,#798);
#713=AXIS2_PLACEMENT_3D('',#1013,#800,#801);
#714=AXIS2_PLACEMENT_3D('',#1017,#803,#804);
#715=AXIS2_PLACEMENT_3D('',#1021,#806,#807);
#716=AXIS2_PLACEMENT_3D('',#1025,#809,#810);
#717=AXIS2_PLACEMENT_3D('',#1033,#814,#815);
#718=AXIS2_PLACEMENT_3D('',#1040,#819,#820);
#719=AXIS2_PLACEMENT_3D('',#1045,#823,#824);
#720=AXIS2_PLACEMENT_3D('',#1049,#826,#827);
#721=AXIS2_PLACEMENT_3D('',#1050,#828,#829);
#722=AXIS2_PLACEMENT_3D('',#1056,#833,#834);
#723=AXIS2_PLACEMENT_3D('',#1060,#837,#838);
#724=AXIS2_PLACEMENT_3D('',#1070,#841,#842);
#725=AXIS2_PLACEMENT_3D('',#1076,#846,#847);
#726=AXIS2_PLACEMENT_3D('',#1080,#850,#851);
#727=AXIS2_PLACEMENT_3D('',#1084,#854,#855);
#728=AXIS2_PLACEMENT_3D('',#1089,#858,#859);
#729=AXIS2_PLACEMENT_3D('',#1093,#861,#862);
#730=AXIS2_PLACEMENT_3D('',#1094,#863,#864);
#731=AXIS2_PLACEMENT_3D('',#1095,#865,#866);
#732=AXIS2_PLACEMENT_3D('',#1104,#870,#871);
#733=AXIS2_PLACEMENT_3D('',#1108,#873,#874);
#734=AXIS2_PLACEMENT_3D('',#1109,#875,#876);
#735=AXIS2_PLACEMENT_3D('',#1115,#880,#881);
#736=AXIS2_PLACEMENT_3D('',#1116,#882,#883);
#737=AXIS2_PLACEMENT_3D('',#1123,#887,#888);
#738=AXIS2_PLACEMENT_3D('',#1129,#892,#893);
#739=AXIS2_PLACEMENT_3D('',#1135,#897,#898);
#740=AXIS2_PLACEMENT_3D('',#1138,#901,#902);
#741=AXIS2_PLACEMENT_3D('',#1147,#907,#908);
#742=AXIS2_PLACEMENT_3D('',#1148,#909,#910);
#743=AXIS2_PLACEMENT_3D('',#1151,#913,#914);
#744=AXIS2_PLACEMENT_3D('',#1152,#915,#916);
#745=AXIS2_PLACEMENT_3D('',#1153,#917,#918);
#746=AXIS2_PLACEMENT_3D('',#1156,#921,#922);
#747=AXIS2_PLACEMENT_3D('',#1159,#925,#926);
#748=AXIS2_PLACEMENT_3D('',#1160,#927,#928);
#749=AXIS2_PLACEMENT_3D('',#1161,#929,#930);
#750=AXIS2_PLACEMENT_3D('',#1162,#931,#932);
#751=AXIS2_PLACEMENT_3D('',#1163,#933,#934);
#752=AXIS2_PLACEMENT_3D('',#1164,#935,#936);
#753=AXIS2_PLACEMENT_3D('',#1165,#937,#938);
#754=AXIS2_PLACEMENT_3D('',#1166,#939,#940);
#755=AXIS2_PLACEMENT_3D('',#1167,#941,#942);
#756=AXIS2_PLACEMENT_3D('',#1168,#943,#944);
#757=AXIS2_PLACEMENT_3D('',#1169,#945,#946);
#758=AXIS2_PLACEMENT_3D('',#1170,#947,#948);
#759=AXIS2_PLACEMENT_3D('',#1171,#949,#950);
#760=AXIS2_PLACEMENT_3D('',#1172,#951,#952);
#761=AXIS2_PLACEMENT_3D('',#1173,#953,#954);
#762=AXIS2_PLACEMENT_3D('',#1174,#955,#956);
#763=AXIS2_PLACEMENT_3D('',#1175,#957,#958);
#764=AXIS2_PLACEMENT_3D('',#1176,#959,#960);
#765=AXIS2_PLACEMENT_3D('',#1177,#961,#962);
#766=AXIS2_PLACEMENT_3D('',#1178,#963,#964);
#767=AXIS2_PLACEMENT_3D('',#1179,#965,#966);
#768=AXIS2_PLACEMENT_3D('',#1180,#967,#968);
#769=AXIS2_PLACEMENT_3D('',#1181,#969,#970);
#770=AXIS2_PLACEMENT_3D('',#1182,#971,#972);
#771=AXIS2_PLACEMENT_3D('',#1183,#973,#974);
#772=AXIS2_PLACEMENT_3D('',#1184,#975,#976);
#773=AXIS2_PLACEMENT_3D('',#1185,#977,#978);
#774=AXIS2_PLACEMENT_3D('',#1186,#979,#980);
#775=AXIS2_PLACEMENT_3D('',#1187,#981,#982);
#776=AXIS2_PLACEMENT_3D('',#1188,#983,#984);
#777=DIRECTION('',(0.,0.,1.));
#778=DIRECTION('',(1.,0.,0.));
#779=DIRECTION('',(1.69241314729444E-16,0.,1.));
#780=DIRECTION('',(1.,0.,-1.69241314729444E-16));
#781=DIRECTION('',(1.57702134179709E-16,0.,-1.));
#782=DIRECTION('',(-1.,0.,-1.57702134179709E-16));
#783=DIRECTION('',(1.69241314729444E-16,0.,1.));
#784=DIRECTION('',(1.,0.,-1.69241314729444E-16));
#785=DIRECTION('',(0.,-1.,0.));
#786=DIRECTION('',(1.,0.,0.));
#787=DIRECTION('',(0.,0.,-1.));
#788=DIRECTION('',(-1.,0.,0.));
#789=DIRECTION('',(0.,-1.,0.));
#790=DIRECTION('',(0.,0.,-1.));
#791=DIRECTION('',(0.,0.,-1.));
#792=DIRECTION('',(-1.,0.,0.));
#793=DIRECTION('',(0.,0.,1.));
#794=DIRECTION('',(0.,-1.,0.));
#795=DIRECTION('',(0.,0.,-1.));
#796=DIRECTION('',(1.,0.,-1.33440267382831E-16));
#797=DIRECTION('',(0.,-1.,0.));
#798=DIRECTION('',(0.,0.,-1.));
#799=DIRECTION('',(0.,0.,-1.));
#800=DIRECTION('',(0.,-1.,0.));
#801=DIRECTION('',(0.,0.,-1.));
#802=DIRECTION('',(-1.,0.,1.69241314729444E-16));
#803=DIRECTION('',(0.,-1.,0.));
#804=DIRECTION('',(0.,0.,-1.));
#805=DIRECTION('',(0.,0.,-1.));
#806=DIRECTION('',(0.,-1.,0.));
#807=DIRECTION('',(0.,0.,-1.));
#808=DIRECTION('',(-1.,0.,-1.33440267382831E-16));
#809=DIRECTION('',(0.,-1.,0.));
#810=DIRECTION('',(0.,0.,-1.));
#811=DIRECTION('',(0.,0.,1.));
#812=DIRECTION('',(1.,0.,0.));
#813=DIRECTION('',(0.,0.,-1.));
#814=DIRECTION('',(0.,-1.,0.));
#815=DIRECTION('',(0.,0.,-1.));
#816=DIRECTION('',(1.,0.,2.16840434497101E-16));
#817=DIRECTION('',(0.,0.,-1.));
#818=DIRECTION('',(1.,0.,1.57702134179709E-16));
#819=DIRECTION('',(0.,0.,1.));
#820=DIRECTION('',(1.,0.,0.));
#821=DIRECTION('',(-1.,6.93889390390723E-16,0.));
#822=DIRECTION('',(0.,-1.,0.));
#823=DIRECTION('',(0.,0.,1.));
#824=DIRECTION('',(1.,0.,0.));
#825=DIRECTION('',(0.,-1.,0.));
#826=DIRECTION('',(0.,0.,1.));
#827=DIRECTION('',(1.,0.,0.));
#828=DIRECTION('',(-1.,0.,0.));
#829=DIRECTION('',(0.,0.,1.));
#830=DIRECTION('',(0.,-1.,0.));
#831=DIRECTION('',(0.,0.,-1.));
#832=DIRECTION('',(0.,-1.,0.));
#833=DIRECTION('',(0.,0.,1.));
#834=DIRECTION('',(1.,0.,0.));
#835=DIRECTION('',(1.,-6.93889390390723E-16,0.));
#836=DIRECTION('',(0.,-1.,0.));
#837=DIRECTION('',(1.,0.,0.));
#838=DIRECTION('',(0.,0.,-1.));
#839=DIRECTION('',(0.,0.,1.));
#840=DIRECTION('',(0.,-1.,0.));
#841=DIRECTION('',(1.,0.,0.));
#842=DIRECTION('',(0.,0.,-1.));
#843=DIRECTION('',(0.,-1.,0.));
#844=DIRECTION('',(0.,0.,1.));
#845=DIRECTION('',(0.,-1.,0.));
#846=DIRECTION('',(0.,0.,-1.));
#847=DIRECTION('',(-1.,0.,0.));
#848=DIRECTION('',(1.,-6.93889390390723E-16,0.));
#849=DIRECTION('',(0.,-1.,0.));
#850=DIRECTION('',(-1.,0.,0.));
#851=DIRECTION('',(0.,0.,1.));
#852=DIRECTION('',(0.,0.,-1.));
#853=DIRECTION('',(0.,-1.,0.));
#854=DIRECTION('',(2.16840434497101E-16,0.,-1.));
#855=DIRECTION('',(-1.,0.,-2.16840434497101E-16));
#856=DIRECTION('',(0.,-1.,0.));
#857=DIRECTION('',(1.,-6.93889390390723E-16,2.16840434497101E-16));
#858=DIRECTION('',(2.16840434497101E-16,0.,-1.));
#859=DIRECTION('',(-1.,0.,-2.16840434497101E-16));
#860=DIRECTION('',(0.,-1.,0.));
#861=DIRECTION('',(2.16840434497101E-16,0.,-1.));
#862=DIRECTION('',(-1.,0.,-2.16840434497101E-16));
#863=DIRECTION('',(1.57702134179709E-16,0.,-1.));
#864=DIRECTION('',(-1.,0.,-1.57702134179709E-16));
#865=DIRECTION('',(1.57702134179709E-16,0.,-1.));
#866=DIRECTION('',(-1.,0.,-1.57702134179709E-16));
#867=DIRECTION('',(0.,-1.,0.));
#868=DIRECTION('',(1.,0.,1.57702134179709E-16));
#869=DIRECTION('',(0.,-1.,0.));
#870=DIRECTION('',(1.57702134179709E-16,0.,-1.));
#871=DIRECTION('',(-1.,0.,-1.57702134179709E-16));
#872=DIRECTION('',(-1.,0.,-1.57702134179709E-16));
#873=DIRECTION('',(1.57702134179709E-16,0.,-1.));
#874=DIRECTION('',(-1.,0.,-1.57702134179709E-16));
#875=DIRECTION('',(-1.,0.,0.));
#876=DIRECTION('',(0.,0.,1.));
#877=DIRECTION('',(0.,0.,1.));
#878=DIRECTION('',(0.,-1.,0.));
#879=DIRECTION('',(0.,-1.,0.));
#880=DIRECTION('',(1.69241314729444E-16,0.,1.));
#881=DIRECTION('',(1.,0.,-1.69241314729444E-16));
#882=DIRECTION('',(1.69241314729444E-16,0.,1.));
#883=DIRECTION('',(1.,0.,-1.69241314729444E-16));
#884=DIRECTION('',(0.,-1.,0.));
#885=DIRECTION('',(1.,0.,-1.69241314729444E-16));
#886=DIRECTION('',(0.,-1.,0.));
#887=DIRECTION('',(-1.,0.,0.));
#888=DIRECTION('',(0.,0.,1.));
#889=DIRECTION('',(0.,-1.,0.));
#890=DIRECTION('',(0.,0.,1.));
#891=DIRECTION('',(0.,-1.,0.));
#892=DIRECTION('',(-1.33440267382831E-16,0.,-1.));
#893=DIRECTION('',(-1.,0.,1.33440267382831E-16));
#894=DIRECTION('',(1.,-6.93889390390723E-16,-1.33440267382831E-16));
#895=DIRECTION('',(0.,-1.,0.));
#896=DIRECTION('',(0.,-1.,0.));
#897=DIRECTION('',(-1.,0.,0.));
#898=DIRECTION('',(0.,0.,1.));
#899=DIRECTION('',(0.,0.,-1.));
#900=DIRECTION('',(0.,0.,-1.));
#901=DIRECTION('',(6.93889390390723E-16,1.,0.));
#902=DIRECTION('',(-1.,6.93889390390723E-16,0.));
#903=DIRECTION('',(-1.,6.93889390390723E-16,-1.33440267382831E-16));
#904=DIRECTION('',(0.,0.,1.));
#905=DIRECTION('',(0.,0.,1.));
#906=DIRECTION('',(1.,-6.93889390390723E-16,-1.33440267382831E-16));
#907=DIRECTION('',(6.93889390390723E-16,1.,0.));
#908=DIRECTION('',(-1.,6.93889390390723E-16,0.));
#909=DIRECTION('',(6.93889390390723E-16,1.,0.));
#910=DIRECTION('',(-1.,6.93889390390723E-16,0.));
#911=DIRECTION('',(0.,0.,-1.));
#912=DIRECTION('',(0.,0.,-1.));
#913=DIRECTION('',(6.93889390390723E-16,1.,0.));
#914=DIRECTION('',(-1.,6.93889390390723E-16,0.));
#915=DIRECTION('',(6.93889390390723E-16,1.,0.));
#916=DIRECTION('',(-1.,6.93889390390723E-16,0.));
#917=DIRECTION('',(-1.,0.,0.));
#918=DIRECTION('',(0.,0.,1.));
#919=DIRECTION('',(0.,0.,-1.));
#920=DIRECTION('',(0.,0.,-1.));
#921=DIRECTION('',(-1.33440267382831E-16,0.,1.));
#922=DIRECTION('',(1.,0.,1.33440267382831E-16));
#923=DIRECTION('',(0.,-1.,0.));
#924=DIRECTION('',(0.,-1.,0.));
#925=DIRECTION('',(0.,0.,1.));
#926=DIRECTION('',(1.,0.,0.));
#927=DIRECTION('',(0.707106781186548,0.,0.707106781186548));
#928=DIRECTION('',(0.707106781186548,0.,-0.707106781186548));
#929=DIRECTION('',(0.,0.,-1.));
#930=DIRECTION('',(-1.,0.,0.));
#931=DIRECTION('',(0.707106781186548,0.,-0.707106781186548));
#932=DIRECTION('',(0.707106781186548,0.,0.707106781186548));
#933=DIRECTION('',(1.,0.,1.57702134179709E-16));
#934=DIRECTION('',(1.57702134179709E-16,0.,-1.));
#935=DIRECTION('',(1.57702134179709E-16,0.,-1.));
#936=DIRECTION('',(-1.,0.,-1.57702134179709E-16));
#937=DIRECTION('',(1.69241314729444E-16,0.,1.));
#938=DIRECTION('',(1.,0.,-1.69241314729444E-16));
#939=DIRECTION('',(0.,1.,0.));
#940=DIRECTION('',(0.,0.,1.));
#941=DIRECTION('',(0.,0.707106781186548,0.707106781186548));
#942=DIRECTION('',(0.,0.707106781186548,-0.707106781186548));
#943=DIRECTION('',(0.,-1.,0.));
#944=DIRECTION('',(0.,0.,-1.));
#945=DIRECTION('',(0.,-0.707106781186548,0.707106781186548));
#946=DIRECTION('',(0.,-0.707106781186548,-0.707106781186548));
#947=DIRECTION('',(0.,0.,1.));
#948=DIRECTION('',(1.,0.,0.));
#949=DIRECTION('',(0.,1.,0.));
#950=DIRECTION('',(0.,0.,1.));
#951=DIRECTION('',(6.93889390390723E-16,1.,0.));
#952=DIRECTION('',(-1.,6.93889390390723E-16,0.));
#953=DIRECTION('',(6.93889390390723E-16,1.,0.));
#954=DIRECTION('',(-1.,6.93889390390723E-16,0.));
#955=DIRECTION('',(1.,0.,0.));
#956=DIRECTION('',(0.,0.,-1.));
#957=DIRECTION('',(1.,-6.93889390390723E-16,-1.33440267382831E-16));
#958=DIRECTION('',(6.93889390390723E-16,1.,0.));
#959=DIRECTION('',(1.,0.,0.));
#960=DIRECTION('',(0.,0.,-1.));
#961=DIRECTION('',(0.,1.,0.));
#962=DIRECTION('',(0.,0.,1.));
#963=DIRECTION('',(0.,1.,-3.46944695195361E-15));
#964=DIRECTION('',(0.,3.46944695195361E-15,1.));
#965=DIRECTION('',(0.,-6.93889390390723E-15,-1.));
#966=DIRECTION('',(0.,1.,-6.93889390390723E-15));
#967=DIRECTION('',(8.67361737988403E-16,0.,-1.));
#968=DIRECTION('',(-1.,0.,-8.67361737988403E-16));
#969=DIRECTION('',(0.,1.,0.));
#970=DIRECTION('',(0.,0.,1.));
#971=DIRECTION('',(0.,0.707106781186548,-0.707106781186548));
#972=DIRECTION('',(0.,0.707106781186548,0.707106781186548));
#973=DIRECTION('',(0.,0.,-1.));
#974=DIRECTION('',(-1.,0.,0.));
#975=DIRECTION('',(0.,0.,1.));
#976=DIRECTION('',(1.,0.,0.));
#977=DIRECTION('',(0.,0.,-1.));
#978=DIRECTION('',(-1.,0.,0.));
#979=DIRECTION('',(0.,1.,0.));
#980=DIRECTION('',(0.,0.,1.));
#981=DIRECTION('',(0.,-1.,0.));
#982=DIRECTION('',(0.,0.,-1.));
#983=DIRECTION('',(0.,-1.,0.));
#984=DIRECTION('',(0.,0.,-1.));
#985=CARTESIAN_POINT('',(0.,0.,0.));
#986=CARTESIAN_POINT('',(-3.36367113024771E-18,0.0145,-0.011));
#987=CARTESIAN_POINT('',(2.75017136435349E-19,0.0145,0.0105));
#988=CARTESIAN_POINT('',(-0.0045,0.0145,0.0105));
#989=CARTESIAN_POINT('',(6.98120423258959E-19,0.0145,0.013));
#990=CARTESIAN_POINT('',(0.0045,0.0145,0.013));
#991=CARTESIAN_POINT('',(-3.46944695195361E-18,0.,0.007));
#992=CARTESIAN_POINT('',(0.012,0.,0.007));
#993=CARTESIAN_POINT('',(0.012,0.,0.0105));
#994=CARTESIAN_POINT('',(0.012,0.,0.0015));
#995=CARTESIAN_POINT('',(0.01,0.,0.0015));
#996=CARTESIAN_POINT('',(0.01,0.,0.0015));
#997=CARTESIAN_POINT('',(0.01,0.,0.0005));
#998=CARTESIAN_POINT('',(0.009,0.,0.0005));
#999=CARTESIAN_POINT('',(0.009,0.,0.00075));
#1000=CARTESIAN_POINT('',(0.009,0.,2.16840434497101E-19));
#1001=CARTESIAN_POINT('',(0.0115,0.,-8.67361737988404E-19));
#1002=CARTESIAN_POINT('',(0.014,0.,-8.67361737988404E-19));
#1003=CARTESIAN_POINT('',(0.014,0.,0.0015));
#1004=CARTESIAN_POINT('',(0.014,0.,0.002));
#1005=CARTESIAN_POINT('',(0.015,0.,0.002));
#1006=CARTESIAN_POINT('',(0.015,0.,0.003));
#1007=CARTESIAN_POINT('',(0.01725,0.,0.003));
#1008=CARTESIAN_POINT('',(0.0195,0.,0.003));
#1009=CARTESIAN_POINT('',(0.0195,0.,0.004));
#1010=CARTESIAN_POINT('',(0.0205,0.,0.004));
#1011=CARTESIAN_POINT('',(0.0205,0.,0.0085));
#1012=CARTESIAN_POINT('',(0.0205,0.,0.013));
#1013=CARTESIAN_POINT('',(0.0195,0.,0.013));
#1014=CARTESIAN_POINT('',(0.0195,0.,0.014));
#1015=CARTESIAN_POINT('',(-3.46944695195361E-18,0.,0.014));
#1016=CARTESIAN_POINT('',(-0.0195,0.,0.014));
#1017=CARTESIAN_POINT('',(-0.0195,0.,0.013));
#1018=CARTESIAN_POINT('',(-0.0205,0.,0.013));
#1019=CARTESIAN_POINT('',(-0.0205,0.,0.0085));
#1020=CARTESIAN_POINT('',(-0.0205,0.,0.004));
#1021=CARTESIAN_POINT('',(-0.0195,0.,0.004));
#1022=CARTESIAN_POINT('',(-0.0195,0.,0.003));
#1023=CARTESIAN_POINT('',(-0.01725,0.,0.003));
#1024=CARTESIAN_POINT('',(-0.015,0.,0.003));
#1025=CARTESIAN_POINT('',(-0.015,0.,0.002));
#1026=CARTESIAN_POINT('',(-0.014,0.,0.002));
#1027=CARTESIAN_POINT('',(-0.014,0.,0.0015));
#1028=CARTESIAN_POINT('',(-0.014,0.,-8.67361737988404E-19));
#1029=CARTESIAN_POINT('',(-0.0115,0.,-8.67361737988404E-19));
#1030=CARTESIAN_POINT('',(-0.009,0.,2.16840434497101E-19));
#1031=CARTESIAN_POINT('',(-0.009,0.,0.00075));
#1032=CARTESIAN_POINT('',(-0.009,0.,0.0005));
#1033=CARTESIAN_POINT('',(-0.01,0.,0.0005));
#1034=CARTESIAN_POINT('',(-0.01,0.,0.0015));
#1035=CARTESIAN_POINT('',(-0.01,0.,0.0015));
#1036=CARTESIAN_POINT('',(-0.012,0.,0.0015));
#1037=CARTESIAN_POINT('',(-0.012,0.,0.0095));
#1038=CARTESIAN_POINT('',(-0.012,0.,0.0105));
#1039=CARTESIAN_POINT('',(-4.0214044215826E-18,0.,0.0105));
#1040=CARTESIAN_POINT('',(0.01,0.095,0.0015));
#1041=CARTESIAN_POINT('',(0.01,0.03,0.0015));
#1042=CARTESIAN_POINT('',(0.012,0.03,0.0015));
#1043=CARTESIAN_POINT('',(0.01,0.03,0.0015));
#1044=CARTESIAN_POINT('',(0.01,0.095,0.0015));
#1045=CARTESIAN_POINT('',(0.012,0.001,0.0015));
#1046=CARTESIAN_POINT('',(0.011,0.001,0.0015));
#1047=CARTESIAN_POINT('',(0.011,0.095,0.0015));
#1048=CARTESIAN_POINT('',(0.011,0.029,0.0015));
#1049=CARTESIAN_POINT('',(0.012,0.029,0.0015));
#1050=CARTESIAN_POINT('',(0.009,0.095,0.00075));
#1051=CARTESIAN_POINT('',(0.009,0.095,0.0005));
#1052=CARTESIAN_POINT('',(0.009,0.03,0.0005));
#1053=CARTESIAN_POINT('',(0.009,0.03,0.00075));
#1054=CARTESIAN_POINT('',(0.009,0.03,-8.67361737988404E-19));
#1055=CARTESIAN_POINT('',(0.009,0.095,2.16840434497101E-19));
#1056=CARTESIAN_POINT('',(0.0115,0.095,-8.67361737988404E-19));
#1057=CARTESIAN_POINT('',(-0.0165,0.03,-8.67361737988404E-19));
#1058=CARTESIAN_POINT('',(0.014,0.03,-8.67361737988404E-19));
#1059=CARTESIAN_POINT('',(0.014,0.095,-8.67361737988404E-19));
#1060=CARTESIAN_POINT('',(0.014,0.095,0.0015));
#1061=CARTESIAN_POINT('',(0.014,0.03,0.0015));
#1062=CARTESIAN_POINT('',(0.014,0.03,0.000267949192431124));
#1063=CARTESIAN_POINT('',(0.014,0.03,0.000267949192431124));
#1064=CARTESIAN_POINT('',(0.014,0.03,0.000614603298381227));
#1065=CARTESIAN_POINT('',(0.014,0.0297328454292329,0.00126783664217654));
#1066=CARTESIAN_POINT('',(0.014,0.0292412977277103,0.00175870106580832));
#1067=CARTESIAN_POINT('',(0.014,0.029,0.002));
#1068=CARTESIAN_POINT('',(0.014,0.029,0.002));
#1069=CARTESIAN_POINT('',(0.014,0.,0.002));
#1070=CARTESIAN_POINT('',(-0.014,0.095,0.0015));
#1071=CARTESIAN_POINT('',(-0.014,0.03,0.002));
#1072=CARTESIAN_POINT('',(-0.014,0.03,0.002));
#1073=CARTESIAN_POINT('',(-0.014,0.03,0.0015));
#1074=CARTESIAN_POINT('',(-0.014,0.03,-8.67361737988404E-19));
#1075=CARTESIAN_POINT('',(-0.014,0.095,-8.67361737988404E-19));
#1076=CARTESIAN_POINT('',(-0.0115,0.095,-8.67361737988404E-19));
#1077=CARTESIAN_POINT('',(-0.0165,0.03,-8.67361737988404E-19));
#1078=CARTESIAN_POINT('',(-0.009,0.03,-8.67361737988404E-19));
#1079=CARTESIAN_POINT('',(-0.009,0.095,2.16840434497101E-19));
#1080=CARTESIAN_POINT('',(-0.009,0.095,0.00075));
#1081=CARTESIAN_POINT('',(-0.009,0.03,0.00075));
#1082=CARTESIAN_POINT('',(-0.009,0.03,0.0005));
#1083=CARTESIAN_POINT('',(-0.009,0.095,0.0005));
#1084=CARTESIAN_POINT('',(-0.01,0.095,0.0015));
#1085=CARTESIAN_POINT('',(-0.01,0.095,0.0015));
#1086=CARTESIAN_POINT('',(-0.01,0.03,0.0015));
#1087=CARTESIAN_POINT('',(-0.01,0.03,0.0015));
#1088=CARTESIAN_POINT('',(-0.012,0.03,0.0015));
#1089=CARTESIAN_POINT('',(-0.012,0.029,0.0015));
#1090=CARTESIAN_POINT('',(-0.011,0.029,0.0015));
#1091=CARTESIAN_POINT('',(-0.011,0.095,0.0015));
#1092=CARTESIAN_POINT('',(-0.011,0.001,0.0015));
#1093=CARTESIAN_POINT('',(-0.012,0.001,0.0015));
#1094=CARTESIAN_POINT('',(0.,0.095,0.0095));
#1095=CARTESIAN_POINT('',(4.32719270615058E-19,0.0145,0.0095));
#1096=CARTESIAN_POINT('',(-0.0055,0.0145,0.0095));
#1097=CARTESIAN_POINT('',(0.011,0.095,0.0095));
#1098=CARTESIAN_POINT('',(0.011,0.029,0.0095));
#1099=CARTESIAN_POINT('',(0.011,0.001,0.0095));
#1100=CARTESIAN_POINT('',(0.,0.001,0.0095));
#1101=CARTESIAN_POINT('',(-0.011,0.001,0.0095));
#1102=CARTESIAN_POINT('',(-0.011,0.095,0.0095));
#1103=CARTESIAN_POINT('',(-0.011,0.029,0.0095));
#1104=CARTESIAN_POINT('',(-0.012,0.029,0.0095));
#1105=CARTESIAN_POINT('',(-0.012,0.03,0.0095));
#1106=CARTESIAN_POINT('',(0.,0.03,0.0095));
#1107=CARTESIAN_POINT('',(0.012,0.03,0.0095));
#1108=CARTESIAN_POINT('',(0.012,0.029,0.0095));
#1109=CARTESIAN_POINT('',(-0.0205,0.095,0.0085));
#1110=CARTESIAN_POINT('',(-0.0205,0.029,0.0085));
#1111=CARTESIAN_POINT('',(-0.0205,0.029,0.013));
#1112=CARTESIAN_POINT('',(-0.0205,0.029,0.004));
#1113=CARTESIAN_POINT('',(-0.0205,0.,0.004));
#1114=CARTESIAN_POINT('',(-0.0205,0.095,0.013));
#1115=CARTESIAN_POINT('',(-3.46944695195361E-18,0.095,0.014));
#1116=CARTESIAN_POINT('',(8.67361737988404E-19,0.0145,0.014));
#1117=CARTESIAN_POINT('',(0.0055,0.0145,0.014));
#1118=CARTESIAN_POINT('',(0.0195,0.03,0.014));
#1119=CARTESIAN_POINT('',(0.0195,0.03,0.014));
#1120=CARTESIAN_POINT('',(-3.46944695195361E-18,0.03,0.014));
#1121=CARTESIAN_POINT('',(-0.0195,0.03,0.014));
#1122=CARTESIAN_POINT('',(-0.0195,0.095,0.014));
#1123=CARTESIAN_POINT('',(0.0205,0.095,0.0085));
#1124=CARTESIAN_POINT('',(0.0205,0.03,0.004));
#1125=CARTESIAN_POINT('',(0.0205,0.029,0.004));
#1126=CARTESIAN_POINT('',(0.0205,0.029,0.014));
#1127=CARTESIAN_POINT('',(0.0205,0.029,0.013));
#1128=CARTESIAN_POINT('',(0.0205,0.,0.013));
#1129=CARTESIAN_POINT('',(0.01725,0.095,0.003));
#1130=CARTESIAN_POINT('',(0.01725,0.029,0.003));
#1131=CARTESIAN_POINT('',(0.015,0.029,0.003));
#1132=CARTESIAN_POINT('',(0.0195,0.029,0.003));
#1133=CARTESIAN_POINT('',(0.0195,0.,0.003));
#1134=CARTESIAN_POINT('',(0.015,0.03,0.003));
#1135=CARTESIAN_POINT('',(0.011,0.095,0.0055));
#1136=CARTESIAN_POINT('',(0.011,0.001,0.0055));
#1137=CARTESIAN_POINT('',(0.011,0.029,0.0055));
#1138=CARTESIAN_POINT('',(-0.0165,0.03,0.008));
#1139=CARTESIAN_POINT('',(-0.01725,0.03,0.003));
#1140=CARTESIAN_POINT('',(-0.015,0.03,0.003));
#1141=CARTESIAN_POINT('',(-0.0195,0.03,0.003));
#1142=CARTESIAN_POINT('',(-0.0195,0.03,0.008));
#1143=CARTESIAN_POINT('',(0.0195,0.03,0.003));
#1144=CARTESIAN_POINT('',(0.0195,0.03,0.004));
#1145=CARTESIAN_POINT('',(-0.0165,0.03,0.004));
#1146=CARTESIAN_POINT('',(0.015,0.03,0.004));
#1147=CARTESIAN_POINT('',(0.015,0.03,0.002));
#1148=CARTESIAN_POINT('',(0.01,0.03,0.0005));
#1149=CARTESIAN_POINT('',(0.012,0.03,0.008));
#1150=CARTESIAN_POINT('',(-0.012,0.03,0.0015));
#1151=CARTESIAN_POINT('',(-0.01,0.03,0.0005));
#1152=CARTESIAN_POINT('',(-0.015,0.03,0.002));
#1153=CARTESIAN_POINT('',(-0.011,0.095,0.0055));
#1154=CARTESIAN_POINT('',(-0.011,0.001,0.0015));
#1155=CARTESIAN_POINT('',(-0.011,0.029,0.0095));
#1156=CARTESIAN_POINT('',(-0.01725,0.095,0.003));
#1157=CARTESIAN_POINT('',(-0.0195,0.03,0.003));
#1158=CARTESIAN_POINT('',(-0.015,0.,0.003));
#1159=CARTESIAN_POINT('',(-0.012,0.001,0.0055));
#1160=CARTESIAN_POINT('',(-0.012,0.001,0.0105));
#1161=CARTESIAN_POINT('',(0.012,0.001,0.007));
#1162=CARTESIAN_POINT('',(0.012,0.001,0.0105));
#1163=CARTESIAN_POINT('',(-4.0214044215826E-18,0.001,0.0105));
#1164=CARTESIAN_POINT('',(2.75017136435349E-19,0.0145,0.0105));
#1165=CARTESIAN_POINT('',(6.98120423258959E-19,0.0145,0.013));
#1166=CARTESIAN_POINT('',(-0.0195,0.095,0.004));
#1167=CARTESIAN_POINT('',(-0.0195,0.029,0.004));
#1168=CARTESIAN_POINT('',(-0.0195,0.095,0.013));
#1169=CARTESIAN_POINT('',(-0.0195,0.029,0.013));
#1170=CARTESIAN_POINT('',(-0.0195,0.029,0.008));
#1171=CARTESIAN_POINT('',(0.015,0.095,0.002));
#1172=CARTESIAN_POINT('',(0.015,0.029,0.002));
#1173=CARTESIAN_POINT('',(0.015,0.029,0.002));
#1174=CARTESIAN_POINT('',(0.015,0.029,0.004));
#1175=CARTESIAN_POINT('',(0.01725,0.029,0.004));
#1176=CARTESIAN_POINT('',(0.0195,0.029,0.004));
#1177=CARTESIAN_POINT('',(0.0195,0.095,0.004));
#1178=CARTESIAN_POINT('',(0.0195,0.029,0.004));
#1179=CARTESIAN_POINT('',(0.0195,0.029,0.004));
#1180=CARTESIAN_POINT('',(0.0195,0.029,0.004));
#1181=CARTESIAN_POINT('',(0.0195,0.095,0.013));
#1182=CARTESIAN_POINT('',(0.0195,0.029,0.013));
#1183=CARTESIAN_POINT('',(0.0195,0.029,0.0085));
#1184=CARTESIAN_POINT('',(-0.012,0.029,0.008));
#1185=CARTESIAN_POINT('',(0.012,0.029,0.0055));
#1186=CARTESIAN_POINT('',(-0.015,0.095,0.002));
#1187=CARTESIAN_POINT('',(0.01,0.095,0.0005));
#1188=CARTESIAN_POINT('',(-0.01,0.095,0.0005));
#1189=MECHANICAL_DESIGN_GEOMETRIC_PRESENTATION_REPRESENTATION('',(#694),
#1190);
#1190=(
GEOMETRIC_REPRESENTATION_CONTEXT(3)
GLOBAL_UNCERTAINTY_ASSIGNED_CONTEXT((#1191))
GLOBAL_UNIT_ASSIGNED_CONTEXT((#1194,#1193,#1192))
REPRESENTATION_CONTEXT('Part 1','TOP_LEVEL_ASSEMBLY_PART')
);
#1191=UNCERTAINTY_MEASURE_WITH_UNIT(LENGTH_MEASURE(2.E-5),#1194,
'DISTANCE_ACCURACY_VALUE','Maximum Tolerance applied to model');
#1192=(
NAMED_UNIT(*)
SI_UNIT($,.STERADIAN.)
SOLID_ANGLE_UNIT()
);
#1193=(
NAMED_UNIT(*)
PLANE_ANGLE_UNIT()
SI_UNIT($,.RADIAN.)
);
#1194=(
LENGTH_UNIT()
NAMED_UNIT(*)
SI_UNIT($,.METRE.)
);
#1195=PRODUCT_DEFINITION_SHAPE('','',#1196);
#1196=PRODUCT_DEFINITION('','',#1198,#1197);
#1197=PRODUCT_DEFINITION_CONTEXT('',#1204,'design');
#1198=PRODUCT_DEFINITION_FORMATION_WITH_SPECIFIED_SOURCE('','',#1200,
 .NOT_KNOWN.);
#1199=PRODUCT_RELATED_PRODUCT_CATEGORY('','',(#1200));
#1200=PRODUCT('Part 1','Part 1','Part 1',(#1202));
#1201=PRODUCT_CATEGORY('','');
#1202=PRODUCT_CONTEXT('',#1204,'mechanical');
#1203=APPLICATION_PROTOCOL_DEFINITION('international standard',
'ap242_managed_model_based_3d_engineering',2020,#1204);
#1204=APPLICATION_CONTEXT('managed model based 3d engineering');
ENDSEC;
END-ISO-10303-21;
